<?xml version="1.0" encoding="UTF-8" standalone="no"?>
<svg
   width="36"
   height="36"
   viewBox="0 0 36 36"
   fill="none"
   version="1.1"
   id="svg41"
   sodipodi:docname="Bricsys_part_of_Hexagon_logo.svg"
   inkscape:version="1.1 (c68e22c387, 2021-05-23)"
   xmlns:inkscape="http://www.inkscape.org/namespaces/inkscape"
   xmlns:sodipodi="http://sodipodi.sourceforge.net/DTD/sodipodi-0.dtd"
   xmlns="http://www.w3.org/2000/svg"
   xmlns:svg="http://www.w3.org/2000/svg">
  <defs
     id="defs45" />
  <sodipodi:namedview
     id="namedview43"
     pagecolor="#ffffff"
     bordercolor="#666666"
     borderopacity="1.0"
     inkscape:pageshadow="2"
     inkscape:pageopacity="0.0"
     inkscape:pagecheckerboard="0"
     showgrid="false"
     width="37px"
     inkscape:zoom="10.302158"
     inkscape:cx="32.177723"
     inkscape:cy="18.491271"
     inkscape:window-width="1920"
     inkscape:window-height="1013"
     inkscape:window-x="-9"
     inkscape:window-y="-9"
     inkscape:window-maximized="1"
     inkscape:current-layer="svg41" />
  <path
     fill-rule="evenodd"
     clip-rule="evenodd"
     d="M 0,36 H 36 V 0 H 0 Z"
     fill="#4093ff"
     id="path2" />
  <path
     fill-rule="evenodd"
     clip-rule="evenodd"
     d="M 14.0517,26.7632 H 8.52634 L 17.2881,13.1588 14.3717,9 h 5.5254 l 2.8398,4.1588 z m 10.7809,-0.0206 h -5.4754 l 2.89,-4.1807 -2.89,-4.1088 h 5.4754 l 2.8141,4.1088 z"
     fill="#ffffff"
     id="path4" />
  <mask
     id="mask0_2934_1838"
     maskUnits="userSpaceOnUse"
     x="132"
     y="2"
     width="7"
     height="7">
    <path
       d="m 132.573,5.33429 c 0,-0.90542 0.301,-1.66876 0.904,-2.28966 0.604,-0.6209 1.336,-0.93135 2.199,-0.93135 0.86,0 1.592,0.31045 2.196,0.93135 0.605,0.6209 0.907,1.38424 0.907,2.28966 0,0.90849 -0.303,1.67471 -0.909,2.29849 -0.606,0.62378 -1.337,0.93567 -2.194,0.93567 -0.863,0 -1.595,-0.31189 -2.199,-0.93567 -0.603,-0.62378 -0.904,-1.39 -0.904,-2.29849 z m 0.533,0 c 0,0.75902 0.25,1.39793 0.749,1.91691 0.5,0.5188 1.107,0.77829 1.821,0.77829 0.711,0 1.316,-0.25949 1.816,-0.77829 0.5,-0.51898 0.75,-1.15789 0.75,-1.91691 0,-0.75595 -0.25,-1.39198 -0.75,-1.90808 -0.5,-0.51609 -1.105,-0.77396 -1.816,-0.77396 -0.717,0 -1.324,0.25787 -1.823,0.77396 -0.498,0.5161 -0.747,1.15213 -0.747,1.90808 z m 1.941,0.32792 v 1.45303 h -0.661 V 3.44998 h 1.229 c 0.44,0 0.786,0.09778 1.04,0.29317 0.254,0.19556 0.38,0.4745 0.38,0.83663 0,0.16675 -0.042,0.31261 -0.126,0.43776 -0.085,0.12497 -0.209,0.23212 -0.372,0.32126 0.169,0.08607 0.292,0.20762 0.369,0.36429 0.078,0.15667 0.116,0.34142 0.116,0.55409 v 0.24148 c 0,0.11777 0.005,0.22348 0.016,0.31694 0.01,0.09346 0.029,0.17035 0.058,0.23067 v 0.06897 h -0.677 c -0.026,-0.06032 -0.042,-0.14874 -0.048,-0.26507 -0.006,-0.11651 -0.009,-0.235 -0.009,-0.35583 V 6.2615 c 0,-0.2042 -0.049,-0.35492 -0.146,-0.45271 -0.098,-0.09778 -0.257,-0.14658 -0.479,-0.14658 z m 0,-0.57786 h 0.59 c 0.207,0 0.382,-0.04322 0.526,-0.12947 0.145,-0.08626 0.217,-0.20979 0.217,-0.37078 0,-0.20709 -0.057,-0.35223 -0.171,-0.4356 -0.113,-0.08338 -0.312,-0.12498 -0.594,-0.12498 h -0.568 z"
       fill="#ffffff"
       id="path8" />
  </mask>
</svg>
